<svg viewBox="0 0 1024 1024" xmlns="http://www.w3.org/2000/svg" width="200" height="200" class="icon" fill="none"><path d="M109 0H1a1 1 0 0 0-1 1v63a1 1 0 0 0 1 1h108a1 1 0 0 0 1-1V1a1 1 0 0 0-1-1z" fill="rgb(26 25 43)"/><path d="M110.5 32.5c12.589-1.577 23.755 3.256 33.5 14.5 13 15 9.573 16.798 22 31 9.333 10.667 17.5 15.833 24.5 15.5m-34 83c25.812 1.158 45.978-2.342 60.5-10.5 14.522-8.158 24.022-21.325 28.5-39.5" stroke="rgb(26 25 43)"/><path d="M155 144H47a1 1 0 0 0-1 1v63a1 1 0 0 0 1 1h108a1 1 0 0 0 1-1v-63a1 1 0 0 0-1-1z" fill="rgb(26 25 43)"/><path d="M299 61H191a1 1 0 0 0-1 1v63a1 1 0 0 0 1 1h108a1 1 0 0 0 1-1V62a1 1 0 0 0-1-1z" fill="#FF0072"/></svg>